<svg width="26" height="26" viewBox="0 0 26 26" fill="none" xmlns="http://www.w3.org/2000/svg">
<path d="M5.20356 11.5047C7.20356 15.4353 10.4258 18.6436 14.3563 20.6575L17.4119 17.602C17.7869 17.227 18.3424 17.102 18.8286 17.2686C20.3841 17.7825 22.0647 18.0603 23.7869 18.0603C24.5508 18.0603 25.1758 18.6853 25.1758 19.4492V24.2964C25.1758 25.0603 24.5508 25.6853 23.7869 25.6853C10.7452 25.6853 0.175781 15.1159 0.175781 2.07419C0.175781 1.3103 0.800781 0.685303 1.56467 0.685303H6.42578C7.18967 0.685303 7.81467 1.3103 7.81467 2.07419C7.81467 3.8103 8.09245 5.47697 8.60634 7.03253C8.75911 7.51864 8.648 8.0603 8.25911 8.44919L5.20356 11.5047Z" fill="white"/>
</svg>
