<svg width="27" height="24" viewBox="0 0 27 24" fill="none" xmlns="http://www.w3.org/2000/svg">
<path d="M26.2827 5.76993C25.7073 5.4753 25.1075 5.22977 24.4832 5.02107V19.7896C23.0876 19.2863 21.6554 19.0285 20.1986 19.0285C17.8727 19.0285 15.5713 19.6914 13.4657 20.9682V6.11367C11.4826 4.97196 9.19343 4.29676 6.73287 4.29676C4.54163 4.29676 2.4728 4.83692 0.648804 5.76993C0.244832 5.96636 0 6.39603 0 6.85026V21.6802C0 22.3923 0.575354 22.8956 1.22416 22.8956C1.42002 22.8956 1.61589 22.8465 1.81175 22.7483C3.29298 21.9749 4.95784 21.4838 6.73287 21.4838C9.26687 21.4838 11.605 22.4905 13.4657 23.9391C15.3265 22.4905 17.6646 21.4838 20.1986 21.4838C21.9736 21.4838 23.6385 21.9749 25.1197 22.7605C25.3156 22.8588 25.5114 22.9079 25.7073 22.9079C26.3439 22.9079 26.9315 22.4045 26.9315 21.6925V6.85026C26.9315 6.39603 26.6866 5.96636 26.2827 5.76993ZM11.0174 19.7896C9.62188 19.2863 8.18962 19.0285 6.73287 19.0285C5.27612 19.0285 3.84386 19.2863 2.44832 19.7896V7.62368C3.80713 7.04669 5.2394 6.75205 6.73287 6.75205C8.20186 6.75205 9.65861 7.05896 11.0174 7.63595V19.7896ZM22.0348 0L15.9141 6.13823V17.8009L22.0348 12.2765V0Z" fill="#A1A1A1"/>
</svg>
