<svg width="15" height="14" viewBox="0 0 15 14" fill="none" xmlns="http://www.w3.org/2000/svg">
<path d="M7.5363 4.45455C6.16529 4.45455 5.05484 5.59364 5.05484 7C5.05484 8.40636 6.16529 9.54545 7.5363 9.54545C8.90731 9.54545 10.0178 8.40636 10.0178 7C10.0178 5.59364 8.90731 4.45455 7.5363 4.45455ZM13.0824 6.36364C12.797 3.71 10.7436 1.60364 8.15667 1.31091V0H6.91594V1.31091C4.32901 1.60364 2.2756 3.71 1.99023 6.36364H0.71228V7.63636H1.99023C2.2756 10.29 4.32901 12.3964 6.91594 12.6891V14H8.15667V12.6891C10.7436 12.3964 12.797 10.29 13.0824 7.63636H14.3603V6.36364H13.0824ZM7.5363 11.4545C5.13549 11.4545 3.19374 9.46273 3.19374 7C3.19374 4.53727 5.13549 2.54545 7.5363 2.54545C9.93712 2.54545 11.8789 4.53727 11.8789 7C11.8789 9.46273 9.93712 11.4545 7.5363 11.4545Z" fill="black"/>
</svg>
