<svg width="19" height="24" viewBox="0 0 19 24" fill="none" xmlns="http://www.w3.org/2000/svg">
<path d="M9.5 10.8C11.0794 10.8 14.25 11.604 14.25 13.2V13.392C13.0981 14.736 11.4 15.6 9.5 15.6C7.6 15.6 5.90188 14.736 4.75 13.392V13.2C4.75 11.604 7.92062 10.8 9.5 10.8ZM9.5 9.6C8.19375 9.6 7.125 8.52 7.125 7.2C7.125 5.88 8.19375 4.8 9.5 4.8C10.8062 4.8 11.875 5.88 11.875 7.2C11.875 8.52 10.8062 9.6 9.5 9.6ZM16.625 9.84C16.625 5.484 13.4781 2.4 9.5 2.4C5.52187 2.4 2.375 5.484 2.375 9.84C2.375 12.648 4.69062 16.368 9.5 20.808C14.3094 16.368 16.625 12.648 16.625 9.84ZM9.5 0C14.4875 0 19 3.864 19 9.84C19 13.824 15.8294 18.54 9.5 24C3.17063 18.54 0 13.824 0 9.84C0 3.864 4.5125 0 9.5 0Z" fill="white"/>
</svg>
