<svg width="37" height="37" viewBox="0 0 37 37" fill="none" xmlns="http://www.w3.org/2000/svg">
<path d="M7.69242 26.05C7.69242 25.84 7.79242 25.74 8.00242 25.74H8.73242C8.94242 25.74 9.04242 25.84 9.04242 26.05V34.39C9.04242 34.6 8.94242 34.7 8.73242 34.7H8.00242C7.79242 34.7 7.69242 34.6 7.69242 34.39V30.54H7.28242C7.06242 30.54 6.89242 30.7 6.89242 30.92V34.39C6.89242 34.6 6.79242 34.7 6.58242 34.7H5.85242C5.64242 34.7 5.54242 34.6 5.54242 34.39V26.15C5.54242 25.94 5.64242 25.84 5.85242 25.84H6.58242C6.79242 25.84 6.89242 25.94 6.89242 26.15V29.33C6.98242 29.21 7.14242 29.14 7.31242 29.14H7.69242V26.05ZM4.56242 31.85C4.61242 31.83 4.65242 31.82 4.70242 31.82C4.81242 31.82 4.89242 31.9 4.93242 32.05L5.09242 32.75C5.13242 32.94 5.08242 33.06 4.87242 33.16C4.47242 33.35 4.00242 33.44 3.40242 33.44C1.71242 33.44 0.842422 32.29 0.842422 29.91C0.842422 27.51 1.72242 26.37 3.47242 26.37C3.80242 26.37 4.10242 26.39 4.47242 26.45C4.71242 26.49 4.78242 26.57 4.78242 26.77V27.5C4.78242 27.73 4.66242 27.84 4.47242 27.8C4.20242 27.74 3.87242 27.72 3.49242 27.72C2.58242 27.72 2.19242 28.38 2.19242 29.91C2.19242 31.39 2.57242 32.09 3.37242 32.09C3.76242 32.09 4.21242 32 4.56242 31.85ZM15.4181 30.9C15.1281 30.9 15.0081 31.04 15.0081 31.27V31.39C16.9681 31.48 17.7781 32 17.7781 33.12C17.7781 34.36 16.7881 34.86 14.3581 34.86C11.9281 34.86 10.9381 34.36 10.9381 33.12C10.9381 32.03 11.7081 31.51 13.5581 31.4V31.32C13.5581 31.12 13.6581 30.97 13.8181 30.9C12.5681 30.9 11.4881 30.88 10.6881 30.82C10.4581 30.8 10.3581 30.69 10.3581 30.5V29.91C10.3581 29.7 10.4781 29.59 10.6881 29.61C11.5481 29.68 12.8681 29.69 14.2681 29.69C15.8281 29.69 17.2481 29.67 17.8681 29.61C18.0781 29.59 18.2081 29.7 18.2081 29.91V30.5C18.2081 30.68 18.1081 30.8 17.8781 30.82C17.3881 30.87 16.2881 30.9 15.4181 30.9ZM11.5581 25.96H17.0881C17.2981 25.96 17.4081 26.07 17.4081 26.28V26.89C17.4081 27.1 17.2981 27.21 17.0881 27.21H15.1381C15.3581 27.68 16.0781 28 17.2281 28C17.4481 28 17.5581 28.1 17.5581 28.29V28.94C17.5581 29.13 17.4481 29.24 17.2281 29.25C15.9181 29.31 14.7481 28.74 14.3281 27.96C13.8981 28.74 12.7281 29.31 11.4181 29.25C11.1981 29.24 11.0881 29.13 11.0881 28.94V28.29C11.0881 28.1 11.1981 28 11.4181 28C12.5681 28 13.2981 27.68 13.5281 27.21H11.5581C11.3481 27.21 11.2381 27.1 11.2381 26.89V26.28C11.2381 26.07 11.3481 25.96 11.5581 25.96ZM12.3881 33.12C12.3881 33.55 12.7781 33.66 14.3581 33.66C15.9381 33.66 16.3281 33.55 16.3281 33.12C16.3281 32.69 15.9381 32.58 14.3581 32.58C12.7781 32.58 12.3881 32.69 12.3881 33.12ZM26.7646 32.39C26.9746 32.36 27.1046 32.48 27.1046 32.69V33.43C27.1046 33.61 27.0046 33.71 26.7746 33.75C26.1546 33.86 24.7346 33.92 23.1746 33.92C21.7746 33.92 20.4546 33.87 19.5846 33.75C19.3546 33.72 19.2546 33.62 19.2546 33.43V32.69C19.2546 32.48 19.3746 32.37 19.5846 32.39C19.9646 32.43 20.3746 32.46 20.7346 32.49C20.5946 32.39 20.5046 32.21 20.5046 32V30.19C20.5046 29.98 20.6146 29.87 20.8246 29.87H21.5946C21.8046 29.87 21.9046 29.98 21.9046 30.19V32.14C21.9046 32.41 22.0446 32.55 22.3346 32.56C22.6146 32.57 22.7946 32.56 23.1046 32.55C22.8946 32.48 22.7546 32.27 22.7546 32.01V30.19C22.7546 29.98 22.8646 29.87 23.0746 29.87H23.8446C24.0546 29.87 24.1546 29.98 24.1546 30.19V32.06C24.1546 32.35 24.3146 32.49 24.5846 32.48C25.2646 32.46 26.4946 32.43 26.7646 32.39ZM24.8146 30.85C24.9446 30.19 24.9846 29.4 24.9846 28.81C24.9846 28.04 24.5746 27.62 23.8146 27.62C22.8746 27.62 21.7446 27.72 20.4046 27.79C20.2146 27.8 20.0846 27.69 20.0846 27.51V26.73C20.0846 26.57 20.2046 26.45 20.4046 26.43C21.8046 26.29 23.0546 26.26 24.0946 26.26C25.5746 26.26 26.3746 27.05 26.3746 28.52C26.3746 29.43 26.3146 30.31 26.1646 31.05C26.1246 31.25 26.0246 31.3 25.8246 31.27L25.0446 31.15C24.8446 31.12 24.7746 31.05 24.8146 30.85ZM34.8711 28.31C33.8611 28.25 32.8611 28.25 31.8811 28.25C30.4211 28.25 30.2811 28.34 30.2811 28.52C30.2811 28.72 30.5711 28.74 31.8711 28.74C33.0511 28.74 33.9211 28.7 34.9211 28.58C35.0811 28.56 35.1511 28.62 35.1711 28.78L35.2211 29.31C35.2311 29.46 35.1611 29.54 35.0211 29.56C34.2911 29.67 33.6911 29.7 32.8011 29.71V29.98C32.8011 30.17 32.8611 30.23 33.0511 30.24C33.6111 30.27 34.9011 30.22 35.6811 30.16C35.8911 30.14 36.0011 30.23 36.0011 30.44V30.97C36.0011 31.15 35.9211 31.25 35.6911 31.27C35.0711 31.33 33.6311 31.35 32.0711 31.35C30.6711 31.35 29.3311 31.34 28.4611 31.27C28.2311 31.25 28.1511 31.16 28.1511 30.97V30.44C28.1511 30.23 28.2511 30.14 28.4611 30.16C29.1811 30.22 30.4911 30.25 31.4911 30.25C31.4011 30.18 31.3511 30.08 31.3511 29.95V29.72C29.3411 29.68 28.8311 29.4 28.8311 28.48C28.8311 27.5 29.3711 27.27 31.8611 27.27C32.9511 27.27 33.8711 27.26 34.9211 27.33C35.0611 27.34 35.1211 27.42 35.1211 27.57V28.1C35.1211 28.25 35.0411 28.32 34.8711 28.31ZM28.7311 33.27C28.7311 32.12 29.6811 31.68 32.1511 31.68C34.6211 31.68 35.5711 32.12 35.5711 33.27C35.5711 34.42 34.6211 34.86 32.1511 34.86C29.6811 34.86 28.7311 34.42 28.7311 33.27ZM34.8611 26.95H29.1511C28.9911 26.95 28.9111 26.89 28.9111 26.73V26.17C28.9111 26.02 28.9711 25.96 29.1511 25.96H34.8611C35.0411 25.96 35.1211 26.02 35.1211 26.17V26.73C35.1211 26.89 35.0211 26.95 34.8611 26.95ZM32.1511 33.74C33.7411 33.74 34.1211 33.65 34.1211 33.27C34.1211 32.89 33.7411 32.8 32.1511 32.8C30.5611 32.8 30.1811 32.89 30.1811 33.27C30.1811 33.65 30.5611 33.74 32.1511 33.74Z" fill="#FFCB2A"/>
<circle cx="18.5" cy="12.5" r="12.5" fill="#FFCB2A"/>
<path d="M11 17.2632C11 18.0968 11.3695 18.8453 11.9474 19.3663V21.0526C11.9474 21.5737 12.3737 22 12.8947 22H13.8421C14.3632 22 14.7895 21.5737 14.7895 21.0526V20.1053H22.3684V21.0526C22.3684 21.5737 22.7947 22 23.3158 22H24.2632C24.7842 22 25.2105 21.5737 25.2105 21.0526V19.3663C25.7884 18.8453 26.1579 18.0968 26.1579 17.2632V7.78947C26.1579 4.47368 22.7663 4 18.5789 4C14.3916 4 11 4.47368 11 7.78947V17.2632ZM14.3158 18.2105C13.5295 18.2105 12.8947 17.5758 12.8947 16.7895C12.8947 16.0032 13.5295 15.3684 14.3158 15.3684C15.1021 15.3684 15.7368 16.0032 15.7368 16.7895C15.7368 17.5758 15.1021 18.2105 14.3158 18.2105ZM22.8421 18.2105C22.0558 18.2105 21.4211 17.5758 21.4211 16.7895C21.4211 16.0032 22.0558 15.3684 22.8421 15.3684C23.6284 15.3684 24.2632 16.0032 24.2632 16.7895C24.2632 17.5758 23.6284 18.2105 22.8421 18.2105ZM24.2632 12.5263H12.8947V7.78947H24.2632V12.5263Z" fill="white"/>
</svg>
