<svg width="25" height="37" viewBox="0 0 25 37" fill="none" xmlns="http://www.w3.org/2000/svg">
<path d="M3.96352 33.75C3.73352 33.72 3.63352 33.62 3.63352 33.43V32.69C3.63352 32.48 3.75352 32.37 3.96352 32.39C4.71352 32.46 5.85352 32.54 6.94352 32.57C6.75352 32.48 6.63352 32.29 6.63352 32.04V31.27C4.97352 31.08 4.21352 30.31 4.21352 28.79C4.21352 27.06 5.25352 26.27 7.64352 26.27C8.63352 26.27 9.35352 26.3 10.2135 26.38C10.4335 26.4 10.5235 26.49 10.5235 26.69V27.42C10.5235 27.62 10.4035 27.74 10.2135 27.73C9.28352 27.68 8.42352 27.62 7.61352 27.62C6.24352 27.62 5.66352 27.97 5.66352 28.79C5.66352 29.63 6.14352 29.96 7.35352 29.96C8.10352 29.96 9.29352 29.89 10.2935 29.78C10.4835 29.76 10.5835 29.86 10.6035 30.09L10.6535 30.82C10.6635 31.01 10.5635 31.11 10.3435 31.13C9.35352 31.22 8.64352 31.27 8.08352 31.3V32.12C8.08352 32.54 8.40352 32.54 8.71352 32.54C9.31352 32.54 10.4535 32.48 11.1435 32.39C11.3535 32.36 11.4835 32.48 11.4835 32.69V33.43C11.4835 33.61 11.3835 33.71 11.1535 33.75C10.5335 33.86 9.11352 33.92 7.55352 33.92C6.15352 33.92 4.83352 33.87 3.96352 33.75ZM12.86 33.75C12.63 33.72 12.53 33.62 12.53 33.43V32.69C12.53 32.48 12.65 32.37 12.86 32.39C13.61 32.46 14.92 32.54 16.04 32.57C15.85 32.48 15.73 32.29 15.73 32.04V31.26H14.72C13.9 31.26 13.41 30.82 13.38 30.08L13.23 26.59C13.22 26.39 13.35 26.27 13.56 26.27H14.35C14.58 26.27 14.68 26.35 14.69 26.56L14.72 27.42H18.18L18.21 26.56C18.22 26.36 18.32 26.27 18.55 26.27H19.34C19.56 26.27 19.68 26.39 19.67 26.59L19.52 30.08C19.49 30.82 19 31.26 18.18 31.26H17.18V32.12C17.18 32.54 17.49 32.54 17.81 32.54C18.36 32.54 19.35 32.48 20.04 32.39C20.25 32.36 20.38 32.48 20.38 32.69V33.43C20.38 33.61 20.28 33.71 20.05 33.75C19.43 33.86 18.01 33.92 16.45 33.92C15.05 33.92 13.73 33.87 12.86 33.75ZM14.78 28.77L14.81 29.58C14.82 29.81 14.93 29.91 15.18 29.91H17.72C17.97 29.91 18.08 29.81 18.09 29.58L18.12 28.77H14.78Z" fill="#FFCB2A"/>
<circle cx="12.5" cy="12.5" r="12.5" fill="#FFCB2A"/>
<path d="M13.2791 7.34884C14.2 7.34884 14.9535 6.59535 14.9535 5.67442C14.9535 4.75349 14.2 4 13.2791 4C12.3581 4 11.6047 4.75349 11.6047 5.67442C11.6047 6.59535 12.3581 7.34884 13.2791 7.34884ZM10.1814 10.1953L7.83721 22H9.59535L11.1023 15.3023L12.8605 16.9767V22H14.5349V15.7209L12.7767 14.0465L13.2791 11.5349C14.3674 12.7907 16.0419 13.6279 17.8837 13.6279V11.9535C16.293 11.9535 14.9535 11.1163 14.2837 9.94419L13.4465 8.60465C13.1116 8.10233 12.6093 7.76744 12.0233 7.76744C11.7721 7.76744 11.6047 7.85116 11.3535 7.85116L7 9.69302V13.6279H8.67442V10.7814L10.1814 10.1953Z" fill="white"/>
</svg>
