<svg width="25" height="37" viewBox="0 0 25 37" fill="none" xmlns="http://www.w3.org/2000/svg">
<path d="M3.86 33.75C3.63 33.72 3.53 33.62 3.53 33.43V32.69C3.53 32.48 3.65 32.37 3.86 32.39C4.61 32.46 5.75 32.54 6.84 32.57C6.65 32.48 6.53 32.29 6.53 32.04V31.27C4.87 31.08 4.11 30.31 4.11 28.79C4.11 27.06 5.15 26.27 7.54 26.27C8.53 26.27 9.25 26.3 10.11 26.38C10.33 26.4 10.42 26.49 10.42 26.69V27.42C10.42 27.62 10.3 27.74 10.11 27.73C9.18 27.68 8.32 27.62 7.51 27.62C6.14 27.62 5.56 27.97 5.56 28.79C5.56 29.63 6.04 29.96 7.25 29.96C8 29.96 9.19 29.89 10.19 29.78C10.38 29.76 10.48 29.86 10.5 30.09L10.55 30.82C10.56 31.01 10.46 31.11 10.24 31.13C9.25 31.22 8.54 31.27 7.98 31.3V32.12C7.98 32.54 8.3 32.54 8.61 32.54C9.21 32.54 10.35 32.48 11.04 32.39C11.25 32.36 11.38 32.48 11.38 32.69V33.43C11.38 33.61 11.28 33.71 11.05 33.75C10.43 33.86 9.01 33.92 7.45 33.92C6.05 33.92 4.73 33.87 3.86 33.75ZM15.4265 26C15.4265 26.13 15.5165 26.22 15.6965 26.22H16.7465C16.9565 26.22 17.0765 26.34 17.0765 26.55V27.24C17.0765 27.45 16.9565 27.57 16.7465 27.57H15.4265V27.73C15.4265 28.69 16.0065 29.24 16.8165 29.24C17.0265 29.24 17.1265 29.34 17.1265 29.53V30.28C17.1265 30.48 17.0265 30.59 16.8165 30.59C15.8365 30.59 14.9865 30.14 14.7165 29.3C14.4365 30.14 13.5865 30.59 12.5865 30.59C12.3665 30.59 12.2565 30.47 12.2565 30.28V29.53C12.2565 29.34 12.3665 29.24 12.5865 29.24C13.3965 29.24 13.9765 28.69 13.9765 27.73V27.57H12.6365C12.4265 27.57 12.3065 27.45 12.3065 27.24V26.55C12.3065 26.34 12.4265 26.22 12.6365 26.22H14.1265C14.0265 26.16 13.9765 26.07 13.9765 25.93V25.61C13.9765 25.4 14.0765 25.3 14.2865 25.3H15.1165C15.3265 25.3 15.4265 25.4 15.4265 25.61V26ZM17.3565 31.26C18.7265 31.26 19.3565 31.83 19.3565 33.03C19.3565 33.65 19.3265 34.2 19.2965 34.44C19.2665 34.65 19.1765 34.75 18.9665 34.75H18.1565C17.9465 34.75 17.8165 34.63 17.8465 34.42C17.8865 34.11 17.9065 33.67 17.9065 33.34C17.9065 32.83 17.6865 32.61 17.1365 32.61C15.6465 32.61 14.4965 32.71 13.3765 32.79C13.1765 32.8 13.0665 32.68 13.0665 32.48V31.75C13.0665 31.55 13.1765 31.46 13.3765 31.44C14.3765 31.33 15.4865 31.26 17.3565 31.26ZM19.3865 30.27C19.3865 30.48 19.2665 30.6 19.0565 30.6H18.2665C18.0565 30.6 17.9365 30.48 17.9365 30.27V26.07C17.9365 25.86 18.0565 25.74 18.2665 25.74H19.0565C19.2665 25.74 19.3865 25.86 19.3865 26.07V27.62C19.4965 27.45 19.7265 27.34 20.0065 27.34H20.3265C20.5265 27.34 20.6365 27.45 20.6365 27.65V28.38C20.6365 28.58 20.5265 28.69 20.3265 28.69H19.9665C19.6265 28.69 19.3865 28.92 19.3865 29.24V30.27Z" fill="#F06868"/>
<circle cx="12.5" cy="12.5" r="12.5" fill="#F06868"/>
<path d="M13.6333 7.08329L13.9667 8.74996H18.3333V13.75H15.5333L15.2 12.0833H9.16667V7.08329H13.6333ZM15 5.41663H7.5V19.5833H9.16667V13.75H13.8333L14.1667 15.4166H20V7.08329H15.3333L15 5.41663Z" fill="white"/>
</svg>
