<svg width="26" height="37" viewBox="0 0 26 37" fill="none" xmlns="http://www.w3.org/2000/svg">
<path d="M0.795664 26.37H4.90566C5.11566 26.37 5.23566 26.49 5.23566 26.7V27.39C5.23566 27.6 5.11566 27.72 4.90566 27.72H3.58566V30.02C3.58566 31.05 4.19566 31.88 4.97566 31.99C5.18566 32.02 5.28566 32.12 5.28566 32.31V33.06C5.28566 33.26 5.18566 33.37 4.97566 33.34C3.97566 33.2 3.13566 32.58 2.87566 31.71C2.60566 32.58 1.75566 33.2 0.745664 33.34C0.535664 33.37 0.415664 33.26 0.415664 33.06V32.31C0.415664 32.12 0.525664 32.02 0.745664 31.99C1.52566 31.88 2.13566 31.05 2.13566 30.02V27.72H0.795664C0.585664 27.72 0.465664 27.6 0.465664 27.39V26.7C0.465664 26.49 0.585664 26.37 0.795664 26.37ZM7.54566 34.37C7.54566 34.58 7.42566 34.7 7.21566 34.7H6.42566C6.21566 34.7 6.09566 34.58 6.09566 34.37V26.07C6.09566 25.86 6.21566 25.74 6.42566 25.74H7.21566C7.42566 25.74 7.54566 25.86 7.54566 26.07V29.42C7.65566 29.25 7.88566 29.14 8.16566 29.14H8.48566C8.68566 29.14 8.79566 29.25 8.79566 29.45V30.23C8.79566 30.43 8.68566 30.54 8.48566 30.54H8.12566C7.78566 30.54 7.54566 30.77 7.54566 31.09V34.37ZM13.7021 25.97C13.9121 25.97 14.0321 26.09 14.0321 26.3V26.99C14.0321 27.2 13.9121 27.32 13.7021 27.32H12.4321V27.88C12.4321 28.84 12.9921 29.39 13.7721 29.39C13.9821 29.39 14.0821 29.49 14.0821 29.68V30.43C14.0821 30.63 13.9821 30.74 13.7721 30.74C12.8221 30.74 11.9921 30.29 11.7221 29.45C11.4421 30.29 10.6121 30.74 9.64215 30.74C9.42215 30.74 9.31215 30.62 9.31215 30.43V29.68C9.31215 29.49 9.42215 29.39 9.64215 29.39C10.4221 29.39 10.9821 28.84 10.9821 27.88V27.32H9.69215C9.48215 27.32 9.36215 27.2 9.36215 26.99V26.3C9.36215 26.09 9.48215 25.97 9.69215 25.97H13.7021ZM12.6221 34.85C11.0921 34.85 10.2221 34.13 10.2221 32.87C10.2221 32.37 10.2521 32.14 10.2821 31.9C10.3121 31.69 10.4021 31.57 10.6121 31.57H11.4021C11.6121 31.57 11.7621 31.69 11.7321 31.9C11.6921 32.21 11.6721 32.38 11.6721 32.65C11.6721 33.22 12.0421 33.5 12.8021 33.5C14.1521 33.5 15.4921 33.42 16.5521 33.32C16.7521 33.3 16.8521 33.43 16.8621 33.63L16.9121 34.36C16.9221 34.56 16.8021 34.65 16.6021 34.67C15.6021 34.78 14.3821 34.85 12.6221 34.85ZM15.1921 28.72C15.0921 28.89 14.8921 28.99 14.6221 28.99H14.1921C13.9921 28.99 13.8821 28.88 13.8821 28.68V27.95C13.8821 27.75 13.9921 27.64 14.1921 27.64H14.6621C15.0021 27.64 15.1921 27.46 15.1921 27.14V26.07C15.1921 25.86 15.3121 25.74 15.5221 25.74H16.3121C16.5221 25.74 16.6421 25.86 16.6421 26.07V31.47C16.6421 31.68 16.5221 31.8 16.3121 31.8H15.5221C15.3121 31.8 15.1921 31.68 15.1921 31.47V28.72ZM20.8982 28.74C20.8982 27.99 20.6982 27.72 20.1282 27.72C19.2482 27.72 18.8282 27.83 18.1682 27.9C17.9782 27.92 17.8582 27.8 17.8582 27.59V26.86C17.8582 26.67 17.9482 26.58 18.1682 26.55C19.1782 26.41 19.6382 26.37 20.3482 26.37C21.7682 26.37 22.3582 27.01 22.3582 28.57C22.3582 30.17 22.2582 31.55 21.9882 33.05C21.9482 33.27 21.8582 33.34 21.6482 33.34H20.8482C20.6282 33.34 20.5082 33.21 20.5382 33.01C20.7882 31.37 20.8982 30.1 20.8982 28.74ZM23.6882 26.07C23.6882 25.86 23.8082 25.74 24.0182 25.74H24.8082C25.0182 25.74 25.1382 25.86 25.1382 26.07V34.37C25.1382 34.58 25.0182 34.7 24.8082 34.7H24.0182C23.8082 34.7 23.6882 34.58 23.6882 34.37V30.22C23.5782 30.4 23.3582 30.5 23.0882 30.5H22.9382C22.7382 30.5 22.6282 30.39 22.6282 30.19V29.41C22.6282 29.21 22.7382 29.1 22.9382 29.1H23.1282C23.4682 29.1 23.6882 28.89 23.6882 28.57V26.07Z" fill="#A1A1A1"/>
<circle cx="13.5" cy="12.5" r="12.5" fill="#A1A1A1"/>
<path d="M16.3415 7.92683C17.1463 7.92683 17.8049 7.26829 17.8049 6.46341C17.8049 5.65854 17.1463 5 16.3415 5C15.5366 5 14.878 5.65854 14.878 6.46341C14.878 7.26829 15.5366 7.92683 16.3415 7.92683ZM8.65854 12.6829C6.60976 12.6829 5 14.2927 5 16.3415C5 18.3902 6.60976 20 8.65854 20C10.7073 20 12.3171 18.3902 12.3171 16.3415C12.3171 14.2927 10.7073 12.6829 8.65854 12.6829ZM8.65854 18.9024C7.26829 18.9024 6.09756 17.7317 6.09756 16.3415C6.09756 14.9512 7.26829 13.7805 8.65854 13.7805C10.0488 13.7805 11.2195 14.9512 11.2195 16.3415C11.2195 17.7317 10.0488 18.9024 8.65854 18.9024ZM12.9024 11.5854L14.6585 9.82927L15.2439 10.4146C16.1951 11.3659 17.439 11.9512 18.9756 11.9512V10.4878C17.878 10.4878 17 10.0488 16.3415 9.39024L14.9512 8C14.5854 7.70732 14.2195 7.56098 13.7805 7.56098C13.3415 7.56098 12.9756 7.70732 12.7561 8L10.7073 10.0488C10.4146 10.3415 10.2683 10.7073 10.2683 11.0732C10.2683 11.5122 10.4146 11.878 10.7073 12.0976L13.0488 14.1463V17.8049H14.5122V13.2683L12.9024 11.5854ZM18.9024 12.6829C16.8537 12.6829 15.2439 14.2927 15.2439 16.3415C15.2439 18.3902 16.8537 20 18.9024 20C20.9512 20 22.561 18.3902 22.561 16.3415C22.561 14.2927 20.9512 12.6829 18.9024 12.6829ZM18.9024 18.9024C17.5122 18.9024 16.3415 17.7317 16.3415 16.3415C16.3415 14.9512 17.5122 13.7805 18.9024 13.7805C20.2927 13.7805 21.4634 14.9512 21.4634 16.3415C21.4634 17.7317 20.2927 18.9024 18.9024 18.9024Z" fill="white"/>
</svg>
